<?xml version="1.0" encoding="UTF-8"?>
<svg xmlns="http://www.w3.org/2000/svg" xmlns:xlink="http://www.w3.org/1999/xlink" width="22px" height="30px" viewBox="0 0 22 30" version="1.1">
<defs>
<clipPath id="clip1">
  <path d="M 0 1.335938 L 22 1.335938 L 22 15.121094 L 0 15.121094 Z M 0 1.335938 "/>
</clipPath>
<clipPath id="clip2">
  <path d="M 3.753906 12.71875 L 18.1875 12.71875 L 18.1875 28.636719 L 3.753906 28.636719 Z M 3.753906 12.71875 "/>
</clipPath>
<clipPath id="clip3">
  <path d="M 3.285156 12.078125 L 18.65625 12.078125 L 18.65625 28.636719 L 3.285156 28.636719 Z M 3.285156 12.078125 "/>
</clipPath>
</defs>
<g id="surface1">
<path style=" stroke:none;fill-rule:nonzero;fill:rgb(8.235294%,5.098039%,3.921569%);fill-opacity:1;" d="M 2.042969 4.640625 L 2.042969 11.558594 C 2.042969 11.574219 2.035156 11.589844 2.027344 11.601562 L 0.117188 14.207031 C 0.0898438 14.242188 0.046875 14.21875 0.046875 14.164062 L 0.046875 1.625 C 0.046875 1.441406 0.1875 1.394531 0.257812 1.394531 L 21.699219 1.394531 C 21.902344 1.394531 21.953125 1.625 21.953125 1.742188 L 21.953125 14.363281 C 21.953125 14.394531 21.933594 14.421875 21.910156 14.421875 L 21.886719 14.421875 C 21.875 14.421875 21.863281 14.414062 21.855469 14.402344 L 19.882812 11.425781 C 19.878906 11.417969 19.875 11.402344 19.875 11.386719 L 19.875 4.636719 C 19.875 4.363281 19.738281 4.328125 19.664062 4.347656 C 19.664062 4.347656 19.660156 4.347656 19.65625 4.347656 L 2.167969 4.347656 C 2.035156 4.347656 2.027344 4.53125 2.039062 4.632812 C 2.042969 4.632812 2.042969 4.636719 2.042969 4.640625 Z M 2.042969 4.640625 "/>
<g clip-path="url(#clip1)" clip-rule="nonzero">
<path style="fill:none;stroke-width:1;stroke-linecap:butt;stroke-linejoin:miter;stroke:rgb(0%,0%,0%);stroke-opacity:1;stroke-miterlimit:4;" d="M 24.017656 28.535882 L 24.017656 88.280053 C 24.017656 88.414992 23.925653 88.549931 23.833649 88.651135 L 1.338731 111.152187 C 1.016718 111.455799 0.510697 111.253391 0.510697 110.781105 L 0.510697 2.492686 C 0.510697 0.907155 2.166765 0.502338 2.994799 0.502338 L 255.499102 0.502338 C 257.891199 0.502338 258.489224 2.492686 258.489224 3.504728 L 258.489224 112.501575 C 258.489224 112.771453 258.259214 113.007596 257.983203 113.007596 L 257.707192 113.007596 C 257.569186 113.007596 257.43118 112.940126 257.339177 112.838922 L 234.108229 87.133073 C 234.062227 87.065604 234.016225 86.930665 234.016225 86.795726 L 234.016225 28.502148 C 234.016225 26.140718 232.406159 25.837105 231.532124 26.005779 C 231.532124 26.005779 231.486122 26.005779 231.44012 26.005779 L 25.489716 26.005779 C 23.925653 26.005779 23.833649 27.59131 23.971655 28.468413 C 24.017656 28.468413 24.017656 28.502148 24.017656 28.535882 Z M 24.017656 28.535882 " transform="matrix(0.084915,0,0,0.115793,0.00350913,1.336364)"/>
</g>
<path style=" stroke:none;fill-rule:nonzero;fill:rgb(92.54902%,47.843137%,21.568627%);fill-opacity:1;" d="M 3.699219 5.621094 L 10.449219 5.621094 C 10.542969 5.621094 10.617188 5.722656 10.617188 5.851562 L 10.617188 22.003906 C 10.617188 22.351562 10.703125 22.585938 10.152344 22.179688 C 10.027344 22.085938 9.558594 21.714844 9.453125 21.589844 C 9.304688 21.410156 9.132812 21.179688 8.960938 20.90625 C 8.597656 20.320312 8.421875 19.652344 8.371094 19.367188 C 8.367188 19.351562 8.367188 19.335938 8.367188 19.320312 L 8.367188 9.210938 C 8.367188 8.746094 8.140625 8.671875 8.027344 8.6875 L 3.699219 8.6875 C 3.441406 8.6875 3.324219 8.609375 3.289062 8.546875 C 3.273438 8.527344 3.273438 8.503906 3.273438 8.476562 L 3.273438 6.027344 C 3.273438 5.65625 3.554688 5.601562 3.699219 5.621094 Z M 3.699219 5.621094 "/>
<path style=" stroke:none;fill-rule:nonzero;fill:rgb(92.54902%,47.843137%,21.568627%);fill-opacity:1;" d="M 18.5 5.621094 L 12.953125 5.621094 C 12.859375 5.621094 12.78125 5.722656 12.78125 5.851562 L 12.78125 22.121094 C 12.78125 22.25 12.859375 22.351562 12.953125 22.351562 L 13.039062 22.351562 C 13.082031 22.351562 14.058594 21.367188 14.183594 21.195312 C 14.3125 21.019531 14.523438 20.617188 14.777344 20.09375 C 14.984375 19.679688 15.035156 19.226562 15.035156 19.054688 L 15.035156 9.09375 C 15.035156 8.792969 15.15625 8.734375 15.230469 8.742188 C 15.242188 8.746094 15.25 8.746094 15.261719 8.746094 L 18.515625 8.746094 C 18.683594 8.746094 18.726562 8.59375 18.726562 8.515625 L 18.726562 5.910156 C 18.726562 5.738281 18.605469 5.652344 18.53125 5.625 C 18.519531 5.621094 18.507812 5.621094 18.5 5.621094 Z M 18.5 5.621094 "/>
<path style="fill:none;stroke-width:1;stroke-linecap:butt;stroke-linejoin:miter;stroke:rgb(0%,0%,0%);stroke-opacity:1;stroke-miterlimit:4;" d="M 43.522452 37.003294 L 123.013696 37.003294 C 124.117741 37.003294 124.991776 37.880397 124.991776 38.993642 L 124.991776 178.486667 C 124.991776 181.489057 126.003818 183.513139 119.517553 180.004729 C 118.045493 179.195096 112.525268 175.990299 111.283217 174.910788 C 109.535146 173.358991 107.511063 171.368644 105.486981 169.007214 C 101.208806 163.947007 99.138722 158.178372 98.540697 155.715738 C 98.494695 155.580799 98.494695 155.445861 98.494695 155.310922 L 98.494695 68.005493 C 98.494695 63.991062 95.826586 63.350103 94.492532 63.485042 L 43.522452 63.485042 C 40.486328 63.485042 39.106272 62.810347 38.692255 62.270592 C 38.508248 62.101919 38.508248 61.89951 38.508248 61.663367 L 38.508248 40.511704 C 38.508248 37.306907 41.820383 36.834621 43.522452 37.003294 Z M 43.522452 37.003294 " transform="matrix(0.084915,0,0,0.115793,0.00350913,1.336364)"/>
<path style="fill:none;stroke-width:1;stroke-linecap:butt;stroke-linejoin:miter;stroke:rgb(0%,0%,0%);stroke-opacity:1;stroke-miterlimit:4;" d="M 217.823564 37.003294 L 152.500899 37.003294 C 151.396854 37.003294 150.476816 37.880397 150.476816 38.993642 L 150.476816 179.498709 C 150.476816 180.611954 151.396854 181.489057 152.500899 181.489057 L 153.51294 181.489057 C 154.018961 181.489057 165.51943 172.98791 166.99149 171.503582 C 168.509552 169.98552 170.993653 166.510845 173.983775 161.990394 C 176.421875 158.414515 177.019899 154.501289 177.019899 153.016961 L 177.019899 66.993451 C 177.019899 64.395879 178.445958 63.889858 179.319993 63.957328 C 179.457999 63.991062 179.550003 63.991062 179.688008 63.991062 L 218.007572 63.991062 C 219.985652 63.991062 220.491673 62.675409 220.491673 62.000714 L 220.491673 39.499663 C 220.491673 38.015336 219.065615 37.273172 218.191579 37.037029 C 218.053574 37.003294 217.915568 37.003294 217.823564 37.003294 Z M 217.823564 37.003294 " transform="matrix(0.084915,0,0,0.115793,0.00350913,1.336364)"/>
<g clip-path="url(#clip2)" clip-rule="nonzero">
<path style=" stroke:none;fill-rule:nonzero;fill:rgb(8.235294%,5.098039%,3.921569%);fill-opacity:1;" d="M 18.035156 20.964844 L 16.339844 20.964844 C 16.214844 20.964844 16.101562 21.058594 16.039062 21.203125 C 14.964844 23.679688 11.992188 27.011719 8.664062 24.378906 C 5.941406 22.222656 6.015625 18.109375 6.402344 16.269531 C 6.410156 16.234375 6.414062 16.195312 6.417969 16.160156 L 6.523438 13.269531 C 6.535156 13.011719 6.386719 12.792969 6.195312 12.785156 C 5.765625 12.773438 5.210938 12.765625 5.054688 12.800781 C 4.851562 12.847656 4.84375 13.320312 3.953125 16.214844 C 2.933594 23.394531 7.519531 29.417969 12.105469 28.488281 C 17.425781 27.414062 17.964844 22.0625 18.089844 21.542969 C 18.164062 21.246094 18.152344 21.089844 18.128906 21.015625 C 18.113281 20.972656 18.070312 20.964844 18.035156 20.964844 Z M 18.035156 20.964844 "/>
</g>
<g clip-path="url(#clip3)" clip-rule="nonzero">
<path style="fill:none;stroke-width:1;stroke-linecap:butt;stroke-linejoin:miter;stroke:rgb(0%,0%,0%);stroke-opacity:1;stroke-miterlimit:4;" d="M 212.349341 169.513235 L 192.384526 169.513235 C 190.912466 169.513235 189.578412 170.322868 188.842382 171.571052 C 176.191866 192.958858 141.184437 221.734565 101.990838 198.997371 C 69.92753 180.375811 70.801565 144.853162 75.355751 128.964113 C 75.447755 128.660501 75.493757 128.323154 75.539759 128.019541 L 76.781809 103.055856 C 76.919815 100.829365 75.171744 98.940222 72.917652 98.872752 C 67.857445 98.771548 61.325179 98.704079 59.485104 99.007691 C 57.093006 99.412508 57.001002 103.494407 46.512574 128.491827 C 34.506084 190.496224 88.512288 242.515147 142.518492 234.486286 C 205.173048 225.20924 211.521307 178.992688 212.993367 174.505972 C 213.867403 171.942134 213.729397 170.592745 213.453386 169.951786 C 213.269378 169.580704 212.763358 169.513235 212.349341 169.513235 Z M 212.349341 169.513235 " transform="matrix(0.084915,0,0,0.115793,0.00350913,1.336364)"/>
</g>
</g>
</svg>
